<svg width="262" height="153" xmlns="http://www.w3.org/2000/svg">
 <g>
  <title>background</title>
  <rect fill="none" id="canvas_background" height="155" width="264" y="-1" x="-1"/>
 </g>
 <g>
  <title>Layer 1</title>
  <g id="svg_1" class="signage-logo">

   <g transform="scale(0.46774592995643616) " id="SvgjsG1057">
    <g fill="#4a4a4a" transform="translate(174.006591796875,-1.7719335556030273) scale(2.229186773300171) " class="Imng2-YzH" id="SvgjsG1058">
     <path id="svg_2" fill="none" stroke-width="2" stroke="#4a4a4a" d="m48,2.732l37.301,21.536a6,6 0 0 1 3,5.196l0,43.072a6,6 0 0 1 -3,5.196l-37.301,21.536a6,6 0 0 1 -6,0l-37.301,-21.536a6,6 0 0 1 -3,-5.196l0,-43.072a6,6 0 0 1 3,-5.196l37.301,-21.536a6,6 0 0 1 6,0z"/>
    </g>
    <g fill="#4a4a4a" transform="translate(274.4360046386719,143.84059143066406) scale(1) " class="text" id="SvgjsG1059">
     <path id="svg_3" d="m-51.91,10.25c-2.69,2.5 -5.75,4.2 -9.19,5.09l2.47,4.04c5.3,-0.97 10.13,-3.33 14.5,-7.06c4.37,-3.73 7.15,-8.62 8.35,-14.67c0.44,-2.39 0.74,-5.1 0.89,-8.12c0.15,-3.03 0.23,-6.89 0.23,-11.59l0,-8.74l0,-46.26l10.75,-1.34l0,-4.82l-31.25,0l0,4.82l11.2,1.34l0,48.72c0,8.89 -0.13,15.24 -0.39,19.04c-0.26,3.81 -0.88,7.25 -1.85,10.31c-1.12,3.66 -3.02,6.74 -5.71,9.24zm94.02,-14.9c2.13,3.1 3.9,4.65 5.32,4.65l13.44,0l0,-4.7l-5.26,-1.24c-0.97,-0.07 -2.45,-1.45 -4.43,-4.14c-1.97,-2.69 -4.79,-6.87 -8.45,-12.54c-4.78,-7.25 -8.55,-12.81 -11.31,-16.69c-2.77,-3.88 -5.45,-6.91 -8.07,-9.07l25.76,-28.79l8.18,-1.23l0,-4.82l-25.99,0l0,4.82l9.52,1.23l-35.05,40.77l0,-40.77l9.63,-1.23l0,-4.82l-28.22,0l0,4.82l9.4,1.23l0,71.35l-9.63,1l0,4.82l29.35,0l0,-4.7l-10.53,-1.12l0,-22.63l12.21,-13.77c2.09,2.16 4.23,4.96 6.44,8.4c2.2,3.43 5.13,8.28 8.79,14.56c3.81,6.64 6.77,11.51 8.9,14.61z"/>
    </g>
    <g fill="#4a4a4a" transform="translate(275.2200012207031,303.8931884765625) scale(1) " class="text" id="SvgjsG1060">
     <path id="svg_4" d="m-270.3,5.49c-1.44,1.34 -3.08,2.25 -4.92,2.73l1.32,2.16c2.84,-0.52 5.43,-1.78 7.77,-3.78c2.34,-2 3.83,-4.62 4.47,-7.86c0.24,-1.28 0.4,-2.73 0.48,-4.35c0.08,-1.62 0.12,-3.69 0.12,-6.21l0,-4.68l0,-24.78l5.76,-0.72l0,-2.58l-16.74,0l0,2.58l6,0.72l0,26.1c0,4.76 -0.07,8.16 -0.21,10.2c-0.14,2.04 -0.47,3.88 -0.99,5.52c-0.6,1.96 -1.62,3.61 -3.06,4.95zm28.35,-7.68c2.78,1.9 6.11,2.85 9.99,2.85c3.76,0 7.18,-0.96 10.26,-2.88c3.08,-1.92 5.52,-4.65 7.32,-8.19c1.8,-3.54 2.7,-7.63 2.7,-12.27c0,-4.52 -0.73,-8.46 -2.19,-11.82c-1.46,-3.36 -3.6,-5.96 -6.42,-7.8c-2.82,-1.84 -6.21,-2.76 -10.17,-2.76c-3.72,0 -7.1,0.95 -10.14,2.85c-3.04,1.9 -5.44,4.6 -7.2,8.1c-1.76,3.5 -2.64,7.55 -2.64,12.15c0,4.48 0.72,8.42 2.16,11.82c1.44,3.4 3.55,6.05 6.33,7.95zm0.75,-34.86c2.52,-3.46 5.92,-5.19 10.2,-5.19c2.88,0 5.35,0.82 7.41,2.46c2.06,1.64 3.63,3.93 4.71,6.87c1.08,2.94 1.62,6.35 1.62,10.23c0,4.44 -0.58,8.2 -1.74,11.28c-1.16,3.08 -2.78,5.39 -4.86,6.93c-2.08,1.54 -4.52,2.31 -7.32,2.31c-2.88,0 -5.36,-0.84 -7.44,-2.52c-2.08,-1.68 -3.66,-4.02 -4.74,-7.02c-1.08,-3 -1.62,-6.42 -1.62,-10.26c0,-6.6 1.26,-11.63 3.78,-15.09zm39.84,-4.29l0,38.16l-4.8,0.6l0,2.58l13.74,0l0,-2.58l-5.46,-0.54l0,-35.76l4.92,7.98l21.48,30.9l3.12,0l0,-41.34l4.92,-0.66l0,-2.58l-13.68,0l0,2.58l5.28,0.66l0,33.54l-3.42,-6l-21.24,-30.78l-9.66,0l0,2.58l4.8,0.66zm86.61,38.85c1.14,1.66 2.09,2.49 2.85,2.49l7.2,0l0,-2.52l-2.82,-0.66c-0.52,-0.04 -1.31,-0.78 -2.37,-2.22c-1.06,-1.44 -2.57,-3.68 -4.53,-6.72c-2.56,-3.88 -4.58,-6.86 -6.06,-8.94c-1.48,-2.08 -2.92,-3.7 -4.32,-4.86l13.8,-15.42l4.38,-0.66l0,-2.58l-13.92,0l0,2.58l5.1,0.66l-18.78,21.84l0,-21.84l5.16,-0.66l0,-2.58l-15.12,0l0,2.58l5.04,0.66l0,38.22l-5.16,0.54l0,2.58l15.72,0l0,-2.52l-5.64,-0.6l0,-12.12l6.54,-7.38c1.12,1.16 2.27,2.66 3.45,4.5c1.18,1.84 2.75,4.44 4.71,7.8c2.04,3.56 3.63,6.17 4.77,7.83zm18.45,-38.85l0,38.22l-5.1,0.54l0,2.58l15.3,0l0,-2.58l-5.28,-0.54l0,-18.18l22.92,0l0,18.18l-5.04,0.54l0,2.58l14.94,0l0,-2.58l-4.92,-0.54l0,-38.22l4.92,-0.66l0,-2.58l-14.88,0l0,2.58l4.98,0.66l0,16.86l-22.92,0l0,-16.86l5.22,-0.66l0,-2.58l-15.06,0l0,2.58l4.92,0.66zm59.16,-3.66l-14.88,41.88l-3.84,0.54l0,2.58l13.5,0l0,-2.58l-5.34,-0.6l3.18,-9.48l18.72,0l3.18,9.54l-5.28,0.54l0,2.58l14.64,0l0,-2.58l-3.9,-0.54l-15.06,-41.88l-4.92,0zm3.48,9.24l6.78,19.98l-16.62,0l6.54,-19.8l1.62,-5.88l1.68,5.7zm22.62,33.18l0,2.58l16.26,0l0,-2.58l-6.18,-0.54l0,-16.74c0.76,0.04 3.58,0.06 8.46,0.06c1.04,0.6 2.09,1.78 3.15,3.54c1.06,1.76 2.41,4.3 4.05,7.62c1.52,3.04 2.7,5.24 3.54,6.6c0.84,1.36 1.58,2.04 2.22,2.04l7.02,0l0,-2.52l-2.52,-0.66c-0.64,-0.12 -1.37,-0.79 -2.19,-2.01c-0.82,-1.22 -1.91,-3.05 -3.27,-5.49c-1.56,-2.8 -2.87,-4.99 -3.93,-6.57c-1.06,-1.58 -2.11,-2.71 -3.15,-3.39c2.76,-0.8 4.95,-2.38 6.57,-4.74c1.62,-2.36 2.43,-5 2.43,-7.92c0,-4 -1.22,-6.96 -3.66,-8.88c-2.44,-1.92 -6.52,-2.88 -12.24,-2.88c-0.92,0 -2.34,0.08 -4.26,0.24c-2,0.16 -3.54,0.24 -4.62,0.24l-7.32,0l0,2.46l4.8,0.72l0,38.28l-5.16,0.54zm24.72,-22.74c-1.6,1.72 -3.78,2.58 -6.54,2.58l-3.78,0c-2.16,0 -3.6,-0.02 -4.32,-0.06l0,-18.96c0.28,0 0.9,-0.04 1.86,-0.12c1.36,-0.16 2.74,-0.24 4.14,-0.24c4.08,0 6.94,0.81 8.58,2.43c1.64,1.62 2.46,3.89 2.46,6.81c0,3.32 -0.8,5.84 -2.4,7.56zm23.28,-16.02l0,38.22l-5.82,0.54l0,2.58l16.62,0l0,-2.52l-5.82,-0.6l0,-38.22l5.82,-0.66l0,-2.58l-16.62,0l0,2.58l5.82,0.66zm22.56,0l0,38.16l-4.8,0.6l0,2.58l13.74,0l0,-2.58l-5.46,-0.54l0,-35.76l4.92,7.98l21.48,30.9l3.12,0l0,-41.34l4.92,-0.66l0,-2.58l-13.68,0l0,2.58l5.28,0.66l0,33.54l-3.42,-6l-21.24,-30.78l-9.66,0l0,2.58l4.8,0.66zm52.14,39.12c3.12,1.92 6.8,2.88 11.04,2.88c2.24,0 4.23,-0.18 5.97,-0.54c1.74,-0.36 3.63,-0.86 5.67,-1.5c2,-0.64 3.42,-0.98 4.26,-1.02l0,-16.26l3.66,-0.6l0,-3.18l-17.04,0l0,3.18l8.34,0.6l0,13.68c-1.08,0.84 -2.57,1.51 -4.47,2.01c-1.9,0.5 -3.91,0.75 -6.03,0.75c-3.32,0 -6.14,-0.98 -8.46,-2.94c-2.32,-1.96 -4.05,-4.52 -5.19,-7.68c-1.14,-3.16 -1.71,-6.58 -1.71,-10.26c0,-4.12 0.7,-7.61 2.1,-10.47c1.4,-2.86 3.33,-5.01 5.79,-6.45c2.46,-1.44 5.27,-2.16 8.43,-2.16c2.48,0 4.47,0.21 5.97,0.63c1.5,0.42 2.57,0.89 3.21,1.41l1.32,6.9l3.12,0l0.48,-9.96c-2.24,-0.52 -4.4,-0.96 -6.48,-1.32c-2.08,-0.36 -4.44,-0.54 -7.08,-0.54c-4.24,0 -8.06,0.93 -11.46,2.79c-3.4,1.86 -6.09,4.56 -8.07,8.1c-1.98,3.54 -2.97,7.75 -2.97,12.63c0,4.24 0.82,8.04 2.46,11.4c1.64,3.36 4.02,6 7.14,7.92zm49.5,-39.66l0,38.76l-7.86,0.54l0,2.58l21.6,0l0,-2.58l-8.58,-0.54l0,-38.76l11.58,0.36l1.68,12.18l3.18,0l-0.66,-15.24l-36.54,0l-1.02,15.24l3.3,0l1.92,-12.18l11.4,-0.36zm33.75,39.69c2.78,1.9 6.11,2.85 9.99,2.85c3.76,0 7.18,-0.96 10.26,-2.88c3.08,-1.92 5.52,-4.65 7.32,-8.19c1.8,-3.54 2.7,-7.63 2.7,-12.27c0,-4.52 -0.73,-8.46 -2.19,-11.82c-1.46,-3.36 -3.6,-5.96 -6.42,-7.8c-2.82,-1.84 -6.21,-2.76 -10.17,-2.76c-3.72,0 -7.1,0.95 -10.14,2.85c-3.04,1.9 -5.44,4.6 -7.2,8.1c-1.76,3.5 -2.64,7.55 -2.64,12.15c0,4.48 0.72,8.42 2.16,11.82c1.44,3.4 3.55,6.05 6.33,7.95zm0.75,-34.86c2.52,-3.46 5.92,-5.19 10.2,-5.19c2.88,0 5.35,0.82 7.41,2.46c2.06,1.64 3.63,3.93 4.71,6.87c1.08,2.94 1.62,6.35 1.62,10.23c0,4.44 -0.58,8.2 -1.74,11.28c-1.16,3.08 -2.78,5.39 -4.86,6.93c-2.08,1.54 -4.52,2.31 -7.32,2.31c-2.88,0 -5.36,-0.84 -7.44,-2.52c-2.08,-1.68 -3.66,-4.02 -4.74,-7.02c-1.08,-3 -1.62,-6.42 -1.62,-10.26c0,-6.6 1.26,-11.63 3.78,-15.09zm39.84,-4.29l0,38.16l-4.8,0.6l0,2.58l13.74,0l0,-2.58l-5.46,-0.54l0,-35.76l4.92,7.98l21.48,30.9l3.12,0l0,-41.34l4.92,-0.66l0,-2.58l-13.68,0l0,2.58l5.28,0.66l0,33.54l-3.42,-6l-21.24,-30.78l-9.66,0l0,2.58l4.8,0.66z"/>
    </g>
   </g>
  </g>
 </g>
</svg>